<svg width="746" height="385" viewBox="0 0 746 385" fill="none" xmlns="http://www.w3.org/2000/svg">
<g filter="url(#filter0_d_54_30)">
<path d="M40.15 118V13H56.2V118H40.15ZM3.99999 28V13H92.5V28H3.99999ZM181.252 118V13H197.302V118H181.252ZM104.602 118V13H120.652V118H104.602ZM112.852 70.9V56.2H190.552V70.9H112.852ZM220.764 118V13H236.814V118H220.764ZM230.814 118V102.7H293.664V118H230.814ZM230.814 71.2V56.5H290.664V71.2H230.814ZM230.664 27.7V13H292.464V27.7H230.664Z" fill="white"/>
<path d="M90.3856 126H579.4L558.414 257H69.4L90.3856 126Z" fill="white"/>
<path d="M105.35 207.1L109.55 183.7H148.1C150.1 183.7 152.05 183.2 153.95 182.2C155.95 181.1 157.65 179.7 159.05 178C160.45 176.2 161.3 174.3 161.6 172.3C162 170.3 161.9 168.55 161.3 167.05C160.8 165.55 159.85 164.4 158.45 163.6C157.15 162.8 155.5 162.4 153.5 162.4H113.3L117.35 139H155.9C162.3 139 167.85 140.6 172.55 143.8C177.25 146.9 180.75 151.1 183.05 156.4C185.35 161.6 185.9 167.4 184.7 173.8C183.6 180.1 181.15 185.8 177.35 190.9C173.65 195.9 169.05 199.85 163.55 202.75C158.05 205.65 152.1 207.1 145.7 207.1H105.35ZM86.9 244L105.35 139H129.95L111.5 244H86.9ZM149.15 244L118.1 196.3H145.7L176.75 244H149.15ZM186.07 244L204.52 139H229.12L210.67 244H186.07ZM284.492 246.4C276.792 246.4 269.792 244.95 263.492 242.05C257.292 239.15 252.042 235.15 247.742 230.05C243.542 224.95 240.592 219.05 238.892 212.35C237.192 205.55 237.042 198.3 238.442 190.6C239.842 182.9 242.442 175.8 246.242 169.3C250.142 162.7 254.942 157 260.642 152.2C266.442 147.3 272.842 143.5 279.842 140.8C286.942 138 294.342 136.6 302.042 136.6C310.442 136.6 317.992 138.4 324.692 142C331.392 145.6 336.692 150.35 340.592 156.25L319.892 169.6C317.692 166.4 314.842 164 311.342 162.4C307.942 160.8 304.042 160 299.642 160C295.442 160 291.292 160.85 287.192 162.55C283.192 164.25 279.492 166.6 276.092 169.6C272.692 172.5 269.842 175.9 267.542 179.8C265.342 183.6 263.842 187.7 263.042 192.1C262.242 196.5 262.242 200.6 263.042 204.4C263.842 208.1 265.292 211.35 267.392 214.15C269.592 216.95 272.342 219.15 275.642 220.75C278.942 222.25 282.692 223 286.892 223C290.992 223 294.992 222.2 298.892 220.6C302.792 218.9 306.392 216.65 309.692 213.85C312.992 210.95 315.792 207.65 318.092 203.95C320.492 200.15 322.142 196.15 323.042 191.95L346.142 193.45C344.642 200.95 341.992 207.95 338.192 214.45C334.492 220.85 329.892 226.45 324.392 231.25C318.892 236.05 312.742 239.8 305.942 242.5C299.142 245.1 291.992 246.4 284.492 246.4ZM290.792 201.1L293.942 183.7H347.942L346.142 193.75L336.092 201.1H290.792ZM423.883 244L442.333 139H466.933L448.483 244H423.883ZM352.183 244L370.633 139H395.233L376.783 244H352.183ZM368.533 201.25L372.583 177.85H452.533L448.483 201.25H368.533ZM489.753 244L508.203 139H532.803L514.353 244H489.753ZM472.203 162.4L476.253 139H564.753L560.703 162.4H472.203Z" fill="#141414"/>
<g filter="url(#filter1_nn_54_30)">
<path d="M386.5 370L346 265H363.4L397.45 360.1H392.05L426.25 265H443.65L403 370H386.5ZM504.73 372.4C496.93 372.4 489.68 371 482.98 368.2C476.28 365.4 470.38 361.5 465.28 356.5C460.28 351.5 456.38 345.7 453.58 339.1C450.78 332.4 449.38 325.2 449.38 317.5C449.38 309.8 450.78 302.65 453.58 296.05C456.38 289.35 460.28 283.5 465.28 278.5C470.38 273.5 476.28 269.6 482.98 266.8C489.68 264 496.88 262.6 504.58 262.6C512.38 262.6 519.63 264 526.33 266.8C533.03 269.6 538.88 273.5 543.88 278.5C548.98 283.5 552.93 289.35 555.73 296.05C558.53 302.65 559.93 309.8 559.93 317.5C559.93 325.2 558.53 332.4 555.73 339.1C552.93 345.7 548.98 351.5 543.88 356.5C538.88 361.5 533.03 365.4 526.33 368.2C519.63 371 512.43 372.4 504.73 372.4ZM504.58 357.25C510.38 357.25 515.63 356.3 520.33 354.4C525.13 352.5 529.23 349.8 532.63 346.3C536.13 342.8 538.83 338.65 540.73 333.85C542.63 328.95 543.58 323.5 543.58 317.5C543.58 311.5 542.63 306.1 540.73 301.3C538.83 296.4 536.13 292.2 532.63 288.7C529.23 285.2 525.13 282.5 520.33 280.6C515.63 278.7 510.38 277.75 504.58 277.75C498.88 277.75 493.63 278.7 488.83 280.6C484.13 282.5 480.03 285.2 476.53 288.7C473.13 292.2 470.48 296.4 468.58 301.3C466.68 306.1 465.73 311.5 465.73 317.5C465.73 323.4 466.68 328.8 468.58 333.7C470.48 338.6 473.13 342.8 476.53 346.3C480.03 349.8 484.13 352.5 488.83 354.4C493.63 356.3 498.88 357.25 504.58 357.25ZM601.877 370V265H617.927V370H601.877ZM565.727 280V265H654.227V280H565.727ZM666.329 370V265H682.379V370H666.329ZM676.379 370V354.7H739.229V370H676.379ZM676.379 323.2V308.5H736.229V323.2H676.379ZM676.229 279.7V265H738.029V279.7H676.229Z" fill="white"/>
</g>
<path d="M559.777 268.46C559.413 268.203 559.048 267.946 558.684 267.69C557.615 267.225 556.498 266.996 555.332 267C554.639 267.04 553.945 267.079 553.251 267.118C551.737 267.319 550.276 267.719 548.867 268.318C539.913 272.8 531.318 277.916 523.232 283.883C515.389 289.669 507.954 295.947 501.081 302.907C498.251 305.773 495.508 308.733 492.851 311.774C488.346 306.926 484.14 301.788 480.283 296.388C477.455 292.429 474.82 288.328 472.388 284.103C470.818 281.318 469.335 278.484 467.95 275.599C467.768 274.942 467.391 274.47 466.818 274.183C466.229 273.688 465.543 273.395 464.76 273.304C463.803 273.101 462.843 273.055 461.879 273.166C460.769 273.18 459.678 273.35 458.607 273.676C456.677 274.251 454.564 275.039 453.097 276.496C452.741 276.895 452.385 277.295 452.029 277.694C451.484 278.418 451.293 279.224 451.456 280.111C455.17 287.85 459.539 295.284 464.474 302.274C469.127 308.867 474.3 315.075 479.902 320.846C480.93 321.905 481.978 322.944 483.035 323.973C482.906 324.148 482.774 324.318 482.646 324.493C477.515 331.498 472.872 338.879 468.807 346.58C464.742 354.281 461.182 362.296 458.351 370.556C458.038 371.468 457.735 372.384 457.44 373.303C457.018 374.618 458.097 375.767 459.116 376.296C459.892 376.664 460.702 376.861 461.548 376.887C462.544 377.044 463.544 377.037 464.548 376.868C466.701 376.545 468.955 375.933 470.792 374.707C472.13 373.815 473.408 372.788 473.927 371.173C475.44 366.459 477.192 361.826 479.154 357.288C479.63 356.186 480.122 355.09 480.623 353.999C483.344 348.203 486.391 342.567 489.732 337.119C490.669 335.591 491.63 334.079 492.612 332.58C494.209 333.901 495.829 335.192 497.476 336.447C503.798 341.269 510.439 345.68 517.386 349.505C523.648 352.953 530.16 355.939 536.877 358.34C537.658 358.619 538.443 358.89 539.23 359.154C540.005 359.522 540.816 359.719 541.661 359.745C542.658 359.902 543.658 359.895 544.662 359.726C545.804 359.6 546.906 359.325 547.97 358.9C549.007 358.597 549.985 358.152 550.906 357.565C551.405 357.195 551.904 356.825 552.404 356.455C553.187 355.809 553.732 355.001 554.04 354.03C554.041 353.633 554.043 353.236 554.044 352.839C553.751 351.986 553.191 351.386 552.364 351.037C547.526 349.417 542.789 347.491 538.17 345.304C533.349 343.02 528.657 340.454 524.111 337.645C521.713 336.162 519.358 334.607 517.043 332.993C511.576 329.105 506.354 324.861 501.412 320.297C501.414 320.295 501.415 320.293 501.416 320.291C503.653 317.428 505.978 314.638 508.377 311.916C514.53 305.067 521.18 298.686 528.289 292.881C530.101 291.401 531.944 289.961 533.813 288.557C539.083 284.694 544.565 281.133 550.243 277.929C551.686 277.114 553.144 276.328 554.61 275.56C554.862 275.432 555.113 275.302 555.366 275.176C556.926 274.394 558.794 273.467 559.79 271.907C560.437 270.892 560.76 269.419 559.776 268.459L559.777 268.46Z" fill="white"/>
</g>
<defs>
<filter id="filter0_d_54_30" x="0" y="13" width="743.229" height="372" filterUnits="userSpaceOnUse" color-interpolation-filters="sRGB">
<feFlood flood-opacity="0" result="BackgroundImageFix"/>
<feColorMatrix in="SourceAlpha" type="matrix" values="0 0 0 0 0 0 0 0 0 0 0 0 0 0 0 0 0 0 127 0" result="hardAlpha"/>
<feOffset dy="4"/>
<feGaussianBlur stdDeviation="2"/>
<feComposite in2="hardAlpha" operator="out"/>
<feColorMatrix type="matrix" values="0 0 0 0 0 0 0 0 0 0 0 0 0 0 0 0 0 0 0.25 0"/>
<feBlend mode="normal" in2="BackgroundImageFix" result="effect1_dropShadow_54_30"/>
<feBlend mode="normal" in="SourceGraphic" in2="effect1_dropShadow_54_30" result="shape"/>
</filter>
<filter id="filter1_nn_54_30" x="346" y="262.6" width="393.228" height="109.8" filterUnits="userSpaceOnUse" color-interpolation-filters="sRGB">
<feFlood flood-opacity="0" result="BackgroundImageFix"/>
<feBlend mode="normal" in="SourceGraphic" in2="BackgroundImageFix" result="shape"/>
<feTurbulence type="fractalNoise" baseFrequency="0.1666666716337204 0.1666666716337204" stitchTiles="stitch" numOctaves="3" result="noise" seed="5879" />
<feColorMatrix in="noise" type="luminanceToAlpha" result="alphaNoise" />
<feComponentTransfer in="alphaNoise" result="coloredNoise1">
<feFuncA type="discrete" tableValues="0 0 0 0 0 0 0 0 0 0 0 0 0 0 0 0 0 0 0 0 0 0 0 0 1 1 0 0 0 0 0 0 0 0 0 0 0 0 0 0 0 0 0 0 0 0 0 0 0 0 0 0 0 0 0 0 0 0 0 0 0 0 0 0 0 0 0 0 0 0 0 0 0 0 0 0 0 0 0 0 0 0 0 0 0 0 0 0 0 0 0 0 0 0 0 0 0 0 0 0 "/>
</feComponentTransfer>
<feComposite operator="in" in2="shape" in="coloredNoise1" result="noise1Clipped" />
<feFlood flood-color="rgba(231, 231, 231, 0.25)" result="color1Flood" />
<feComposite operator="in" in2="noise1Clipped" in="color1Flood" result="color1" />
<feMerge result="effect1_noise_54_30">
<feMergeNode in="shape" />
<feMergeNode in="color1" />
</feMerge>
<feTurbulence type="fractalNoise" baseFrequency="1 1" stitchTiles="stitch" numOctaves="3" result="noise" seed="9937" />
<feColorMatrix in="noise" type="luminanceToAlpha" result="alphaNoise" />
<feComponentTransfer in="alphaNoise" result="coloredNoise1">
<feFuncA type="discrete" tableValues="0 0 0 0 0 0 0 0 0 0 0 0 0 0 0 0 0 0 1 1 1 1 1 1 1 1 1 1 1 1 1 0 0 0 0 0 0 0 0 0 0 0 0 0 0 0 0 0 0 0 0 0 0 0 0 0 0 0 0 0 0 0 0 0 0 0 0 0 0 0 0 0 0 0 0 0 0 0 0 0 0 0 0 0 0 0 0 0 0 0 0 0 0 0 0 0 0 0 0 0 "/>
</feComponentTransfer>
<feComposite operator="in" in2="effect1_noise_54_30" in="coloredNoise1" result="noise1Clipped" />
<feComponentTransfer in="alphaNoise" result="coloredNoise2">
<feFuncA type="discrete" tableValues="0 0 0 0 0 0 0 0 0 0 0 0 0 0 0 0 0 0 0 0 0 0 0 0 0 0 0 0 0 0 0 0 0 0 0 0 0 0 0 0 0 0 0 0 0 0 0 0 0 0 0 0 0 0 0 0 0 0 0 0 0 0 0 0 0 0 0 0 0 1 1 1 1 1 1 1 1 1 1 1 1 1 0 0 0 0 0 0 0 0 0 0 0 0 0 0 0 0 0 0 "/>
</feComponentTransfer>
<feComposite operator="in" in2="effect1_noise_54_30" in="coloredNoise2" result="noise2Clipped" />
<feFlood flood-color="rgba(87, 87, 87, 0.15)" result="color1Flood" />
<feComposite operator="in" in2="noise1Clipped" in="color1Flood" result="color1" />
<feFlood flood-color="rgba(255, 255, 255, 0.15)" result="color2Flood" />
<feComposite operator="in" in2="noise2Clipped" in="color2Flood" result="color2" />
<feMerge result="effect2_noise_54_30">
<feMergeNode in="effect1_noise_54_30" />
<feMergeNode in="color1" />
<feMergeNode in="color2" />
</feMerge>
</filter>
</defs>
</svg>
