<svg width="490" height="395" viewBox="0 0 490 395" fill="none" xmlns="http://www.w3.org/2000/svg">
<g filter="url(#filter0_d_82_3)">
<path d="M40.15 118V13H56.2V118H40.15ZM4.00002 28V13H92.5V28H4.00002ZM181.252 118V13H197.302V118H181.252ZM104.602 118V13H120.652V118H104.602ZM112.852 70.9V56.2H190.552V70.9H112.852ZM220.764 118V13H236.814V118H220.764ZM230.814 118V102.7H293.664V118H230.814ZM230.814 71.2V56.5H290.664V71.2H230.814ZM230.664 27.7V13H292.464V27.7H230.664Z" fill="white"/>
<path d="M26.35 212.1L30.55 188.7H69.1C71.1 188.7 73.05 188.2 74.95 187.2C76.95 186.1 78.65 184.7 80.05 183C81.45 181.2 82.3 179.3 82.6 177.3C83 175.3 82.9 173.55 82.3 172.05C81.8 170.55 80.85 169.4 79.45 168.6C78.15 167.8 76.5 167.4 74.5 167.4H34.3L38.35 144H76.9C83.3 144 88.85 145.6 93.55 148.8C98.25 151.9 101.75 156.1 104.05 161.4C106.35 166.6 106.9 172.4 105.7 178.8C104.6 185.1 102.15 190.8 98.35 195.9C94.65 200.9 90.05 204.85 84.55 207.75C79.05 210.65 73.1 212.1 66.7 212.1H26.35ZM7.90002 249L26.35 144H50.95L32.5 249H7.90002ZM70.15 249L39.1 201.3H66.7L97.75 249H70.15ZM107.07 249L125.52 144H150.12L131.67 249H107.07ZM205.492 251.4C197.792 251.4 190.792 249.95 184.492 247.05C178.292 244.15 173.042 240.15 168.742 235.05C164.542 229.95 161.592 224.05 159.892 217.35C158.192 210.55 158.042 203.3 159.442 195.6C160.842 187.9 163.442 180.8 167.242 174.3C171.142 167.7 175.942 162 181.642 157.2C187.442 152.3 193.842 148.5 200.842 145.8C207.942 143 215.342 141.6 223.042 141.6C231.442 141.6 238.992 143.4 245.692 147C252.392 150.6 257.692 155.35 261.592 161.25L240.892 174.6C238.692 171.4 235.842 169 232.342 167.4C228.942 165.8 225.042 165 220.642 165C216.442 165 212.292 165.85 208.192 167.55C204.192 169.25 200.492 171.6 197.092 174.6C193.692 177.5 190.842 180.9 188.542 184.8C186.342 188.6 184.842 192.7 184.042 197.1C183.242 201.5 183.242 205.6 184.042 209.4C184.842 213.1 186.292 216.35 188.392 219.15C190.592 221.95 193.342 224.15 196.642 225.75C199.942 227.25 203.692 228 207.892 228C211.992 228 215.992 227.2 219.892 225.6C223.792 223.9 227.392 221.65 230.692 218.85C233.992 215.95 236.792 212.65 239.092 208.95C241.492 205.15 243.142 201.15 244.042 196.95L267.142 198.45C265.642 205.95 262.992 212.95 259.192 219.45C255.492 225.85 250.892 231.45 245.392 236.25C239.892 241.05 233.742 244.8 226.942 247.5C220.142 250.1 212.992 251.4 205.492 251.4ZM211.792 206.1L214.942 188.7H268.942L267.142 198.75L257.092 206.1H211.792ZM344.883 249L363.333 144H387.933L369.483 249H344.883ZM273.183 249L291.633 144H316.233L297.783 249H273.183ZM289.533 206.25L293.583 182.85H373.533L369.483 206.25H289.533ZM410.753 249L429.203 144H453.803L435.353 249H410.753ZM393.203 167.4L397.253 144H485.753L481.703 167.4H393.203Z" fill="white"/>
<g filter="url(#filter1_nn_82_3)">
<path d="M44.5 380L4.00002 275H21.4L55.45 370.1H50.05L84.25 275H101.65L61 380H44.5ZM162.73 382.4C154.93 382.4 147.68 381 140.98 378.2C134.28 375.4 128.38 371.5 123.28 366.5C118.28 361.5 114.38 355.7 111.58 349.1C108.78 342.4 107.38 335.2 107.38 327.5C107.38 319.8 108.78 312.65 111.58 306.05C114.38 299.35 118.28 293.5 123.28 288.5C128.38 283.5 134.28 279.6 140.98 276.8C147.68 274 154.88 272.6 162.58 272.6C170.38 272.6 177.63 274 184.33 276.8C191.03 279.6 196.88 283.5 201.88 288.5C206.98 293.5 210.93 299.35 213.73 306.05C216.53 312.65 217.93 319.8 217.93 327.5C217.93 335.2 216.53 342.4 213.73 349.1C210.93 355.7 206.98 361.5 201.88 366.5C196.88 371.5 191.03 375.4 184.33 378.2C177.63 381 170.43 382.4 162.73 382.4ZM162.58 367.25C168.38 367.25 173.63 366.3 178.33 364.4C183.13 362.5 187.231 359.8 190.63 356.3C194.13 352.8 196.83 348.65 198.731 343.85C200.631 338.95 201.581 333.5 201.581 327.5C201.581 321.5 200.631 316.1 198.731 311.3C196.83 306.4 194.13 302.2 190.63 298.7C187.231 295.2 183.13 292.5 178.33 290.6C173.63 288.7 168.38 287.75 162.58 287.75C156.88 287.75 151.63 288.7 146.83 290.6C142.13 292.5 138.03 295.2 134.53 298.7C131.13 302.2 128.48 306.4 126.58 311.3C124.68 316.1 123.73 321.5 123.73 327.5C123.73 333.4 124.68 338.8 126.58 343.7C128.48 348.6 131.13 352.8 134.53 356.3C138.03 359.8 142.13 362.5 146.83 364.4C151.63 366.3 156.88 367.25 162.58 367.25ZM259.877 380V275H275.927V380H259.877ZM223.727 290V275H312.227V290H223.727ZM324.329 380V275H340.379V380H324.329ZM334.379 380V364.7H397.229V380H334.379ZM334.379 333.2V318.5H394.229V333.2H334.379ZM334.229 289.7V275H396.029V289.7H334.229Z" fill="white"/>
</g>
<path d="M217.777 278.46C217.413 278.203 217.048 277.946 216.684 277.69C215.615 277.225 214.498 276.996 213.332 277C212.639 277.04 211.945 277.079 211.251 277.118C209.738 277.319 208.276 277.719 206.867 278.318C197.913 282.8 189.319 287.916 181.232 293.883C173.389 299.669 165.954 305.947 159.081 312.907C156.251 315.773 153.508 318.733 150.851 321.774C146.346 316.926 142.14 311.788 138.283 306.388C135.455 302.429 132.82 298.328 130.388 294.103C128.818 291.318 127.335 288.484 125.95 285.599C125.768 284.942 125.391 284.47 124.818 284.183C124.229 283.688 123.543 283.395 122.76 283.304C121.803 283.101 120.843 283.055 119.879 283.166C118.769 283.18 117.678 283.35 116.607 283.676C114.677 284.251 112.564 285.039 111.097 286.496C110.741 286.895 110.385 287.295 110.029 287.694C109.484 288.418 109.293 289.224 109.456 290.111C113.17 297.85 117.539 305.284 122.474 312.274C127.127 318.867 132.3 325.075 137.902 330.846C138.93 331.905 139.978 332.944 141.035 333.973C140.906 334.148 140.774 334.318 140.646 334.493C135.515 341.498 130.872 348.879 126.807 356.58C122.742 364.281 119.182 372.296 116.351 380.556C116.038 381.468 115.735 382.384 115.44 383.303C115.018 384.618 116.097 385.767 117.116 386.296C117.892 386.664 118.702 386.861 119.548 386.887C120.544 387.044 121.544 387.037 122.548 386.868C124.701 386.545 126.956 385.933 128.793 384.707C130.13 383.815 131.408 382.788 131.927 381.173C133.44 376.459 135.192 371.826 137.154 367.288C137.63 366.186 138.122 365.09 138.623 363.999C141.344 358.203 144.391 352.567 147.732 347.119C148.669 345.591 149.63 344.079 150.612 342.58C152.209 343.901 153.829 345.192 155.476 346.447C161.798 351.269 168.439 355.68 175.386 359.505C181.648 362.953 188.16 365.939 194.877 368.34C195.658 368.619 196.443 368.89 197.23 369.154C198.005 369.522 198.816 369.719 199.661 369.745C200.658 369.902 201.658 369.895 202.662 369.726C203.804 369.6 204.906 369.325 205.97 368.9C207.007 368.597 207.985 368.152 208.906 367.565C209.405 367.195 209.904 366.825 210.404 366.455C211.187 365.809 211.732 365.001 212.04 364.03C212.042 363.633 212.043 363.236 212.044 362.839C211.751 361.986 211.191 361.386 210.365 361.037C205.526 359.417 200.789 357.491 196.17 355.304C191.349 353.02 186.657 350.454 182.111 347.645C179.713 346.162 177.358 344.607 175.043 342.993C169.576 339.105 164.354 334.861 159.412 330.297C159.414 330.295 159.415 330.293 159.416 330.291C161.653 327.428 163.978 324.638 166.377 321.916C172.53 315.067 179.18 308.686 186.289 302.88C188.101 301.401 189.944 299.961 191.813 298.557C197.083 294.694 202.565 291.133 208.243 287.929C209.686 287.114 211.144 286.328 212.61 285.56C212.863 285.432 213.113 285.302 213.366 285.176C214.926 284.394 216.794 283.467 217.79 281.907C218.437 280.892 218.76 279.419 217.776 278.459L217.777 278.46Z" fill="white"/>
</g>
<defs>
<filter id="filter0_d_82_3" x="0" y="13" width="489.753" height="382" filterUnits="userSpaceOnUse" color-interpolation-filters="sRGB">
<feFlood flood-opacity="0" result="BackgroundImageFix"/>
<feColorMatrix in="SourceAlpha" type="matrix" values="0 0 0 0 0 0 0 0 0 0 0 0 0 0 0 0 0 0 127 0" result="hardAlpha"/>
<feOffset dy="4"/>
<feGaussianBlur stdDeviation="2"/>
<feComposite in2="hardAlpha" operator="out"/>
<feColorMatrix type="matrix" values="0 0 0 0 0 0 0 0 0 0 0 0 0 0 0 0 0 0 0.25 0"/>
<feBlend mode="normal" in2="BackgroundImageFix" result="effect1_dropShadow_82_3"/>
<feBlend mode="normal" in="SourceGraphic" in2="effect1_dropShadow_82_3" result="shape"/>
</filter>
<filter id="filter1_nn_82_3" x="4" y="272.6" width="393.229" height="109.8" filterUnits="userSpaceOnUse" color-interpolation-filters="sRGB">
<feFlood flood-opacity="0" result="BackgroundImageFix"/>
<feBlend mode="normal" in="SourceGraphic" in2="BackgroundImageFix" result="shape"/>
<feTurbulence type="fractalNoise" baseFrequency="0.1666666716337204 0.1666666716337204" stitchTiles="stitch" numOctaves="3" result="noise" seed="5879" />
<feColorMatrix in="noise" type="luminanceToAlpha" result="alphaNoise" />
<feComponentTransfer in="alphaNoise" result="coloredNoise1">
<feFuncA type="discrete" tableValues="0 0 0 0 0 0 0 0 0 0 0 0 0 0 0 0 0 0 0 0 0 0 0 1 1 1 0 0 0 0 0 0 0 0 0 0 0 0 0 0 0 0 0 0 0 0 0 0 0 0 0 0 0 0 0 0 0 0 0 0 0 0 0 0 0 0 0 0 0 0 0 0 0 0 0 0 0 0 0 0 0 0 0 0 0 0 0 0 0 0 0 0 0 0 0 0 0 0 0 0 "/>
</feComponentTransfer>
<feComposite operator="in" in2="shape" in="coloredNoise1" result="noise1Clipped" />
<feFlood flood-color="rgba(231, 231, 231, 0.25)" result="color1Flood" />
<feComposite operator="in" in2="noise1Clipped" in="color1Flood" result="color1" />
<feMerge result="effect1_noise_82_3">
<feMergeNode in="shape" />
<feMergeNode in="color1" />
</feMerge>
<feTurbulence type="fractalNoise" baseFrequency="1 1" stitchTiles="stitch" numOctaves="3" result="noise" seed="9937" />
<feColorMatrix in="noise" type="luminanceToAlpha" result="alphaNoise" />
<feComponentTransfer in="alphaNoise" result="coloredNoise1">
<feFuncA type="discrete" tableValues="0 0 0 0 0 0 0 0 0 0 0 0 0 0 0 0 0 0 1 1 1 1 1 1 1 1 1 1 1 1 1 0 0 0 0 0 0 0 0 0 0 0 0 0 0 0 0 0 0 0 0 0 0 0 0 0 0 0 0 0 0 0 0 0 0 0 0 0 0 0 0 0 0 0 0 0 0 0 0 0 0 0 0 0 0 0 0 0 0 0 0 0 0 0 0 0 0 0 0 0 "/>
</feComponentTransfer>
<feComposite operator="in" in2="effect1_noise_82_3" in="coloredNoise1" result="noise1Clipped" />
<feComponentTransfer in="alphaNoise" result="coloredNoise2">
<feFuncA type="discrete" tableValues="0 0 0 0 0 0 0 0 0 0 0 0 0 0 0 0 0 0 0 0 0 0 0 0 0 0 0 0 0 0 0 0 0 0 0 0 0 0 0 0 0 0 0 0 0 0 0 0 0 0 0 0 0 0 0 0 0 0 0 0 0 0 0 0 0 0 0 0 0 1 1 1 1 1 1 1 1 1 1 1 1 1 0 0 0 0 0 0 0 0 0 0 0 0 0 0 0 0 0 0 "/>
</feComponentTransfer>
<feComposite operator="in" in2="effect1_noise_82_3" in="coloredNoise2" result="noise2Clipped" />
<feFlood flood-color="rgba(87, 87, 87, 0.15)" result="color1Flood" />
<feComposite operator="in" in2="noise1Clipped" in="color1Flood" result="color1" />
<feFlood flood-color="rgba(255, 255, 255, 0.15)" result="color2Flood" />
<feComposite operator="in" in2="noise2Clipped" in="color2Flood" result="color2" />
<feMerge result="effect2_noise_82_3">
<feMergeNode in="effect1_noise_82_3" />
<feMergeNode in="color1" />
<feMergeNode in="color2" />
</feMerge>
</filter>
</defs>
</svg>
