<?xml version="1.0" encoding="UTF-8" standalone="no"?><!DOCTYPE svg PUBLIC "-//W3C//DTD SVG 1.1//EN" "http://www.w3.org/Graphics/SVG/1.1/DTD/svg11.dtd"><svg width="100%" height="100%" viewBox="0 0 1667 1667" version="1.1" xmlns="http://www.w3.org/2000/svg" xmlns:xlink="http://www.w3.org/1999/xlink" xml:space="preserve" xmlns:serif="http://www.serif.com/" style="fill-rule:evenodd;clip-rule:evenodd;stroke-linejoin:round;stroke-miterlimit:2;"><g><g><g><path d="M823.934,1597.21c-111.159,-0 -214.483,-19.951 -309.964,-59.856c-95.485,-39.904 -179.566,-95.484 -252.248,-166.739c-71.258,-71.256 -126.838,-153.914 -166.739,-247.972c-39.905,-95.485 -59.856,-198.094 -59.856,-307.827c0,-109.734 19.951,-211.631 59.856,-305.69c39.901,-95.484 95.481,-178.854 166.739,-250.109c72.682,-71.255 156.763,-126.835 252.248,-166.74c95.481,-39.905 198.09,-59.855 307.827,-59.855c111.159,-0 214.48,19.95 309.964,59.855c95.482,39.905 178.851,95.485 250.11,166.74c72.681,71.255 128.973,154.625 168.877,250.109c39.902,94.059 59.856,195.956 59.856,305.69c-0,109.733 -19.954,212.342 -59.856,307.827c-39.904,94.058 -96.196,176.716 -168.877,247.972c-71.259,71.255 -154.628,126.835 -250.11,166.739c-95.484,39.905 -198.093,59.856 -307.827,59.856Zm-2.137,-215.907c82.655,0 157.474,-13.538 224.457,-40.616c68.406,-27.079 126.835,-65.557 175.29,-115.435c49.879,-49.878 88.357,-109.022 115.436,-177.428c27.075,-69.833 40.616,-147.501 40.616,-233.008c-0,-85.508 -13.541,-162.465 -40.616,-230.871c-27.079,-69.832 -65.557,-129.687 -115.436,-179.565c-48.455,-49.879 -106.884,-88.357 -175.29,-115.436c-66.983,-27.078 -141.802,-40.616 -224.457,-40.616c-81.232,0 -156.052,13.538 -224.458,40.616c-66.983,27.079 -125.412,65.557 -175.29,115.436c-48.455,49.878 -86.222,109.733 -113.297,179.565c-27.079,68.406 -40.617,145.363 -40.617,230.871c0,84.081 13.538,161.038 40.617,230.87c27.075,69.832 64.842,129.688 113.297,179.566c49.878,49.878 108.307,88.356 175.29,115.435c68.406,27.078 143.226,40.616 224.458,40.616Z" style="fill:#fff;fill-rule:nonzero;"/></g><path d="M1622.66,87.416c-5.188,-3.663 -10.391,-7.323 -15.576,-10.972c-15.234,-6.625 -31.155,-9.892 -47.771,-9.833c-9.875,0.571 -19.766,1.125 -29.658,1.682c-21.575,2.863 -42.398,8.565 -62.478,17.102c-127.605,63.874 -250.093,136.781 -365.329,221.82c-111.772,82.457 -217.73,171.928 -315.681,271.114c-40.332,40.845 -79.422,83.027 -117.289,126.366c-64.199,-69.09 -124.139,-142.312 -179.107,-219.269c-40.305,-56.421 -77.856,-114.864 -112.514,-175.078c-22.376,-39.689 -43.51,-80.076 -63.248,-121.192c-2.593,-9.361 -7.966,-16.089 -16.131,-20.179c-8.396,-7.053 -18.172,-11.229 -29.329,-12.525c-13.64,-2.894 -27.321,-3.551 -41.06,-1.967c-15.819,0.198 -31.365,2.62 -46.629,7.268c-27.506,8.195 -57.619,19.424 -78.524,40.189c-5.075,5.684 -10.148,11.386 -15.22,17.07c-7.767,10.319 -10.49,21.805 -8.168,34.446c52.93,110.291 115.193,216.235 185.524,315.851c66.31,93.959 140.034,182.432 219.868,264.673c14.652,15.094 29.585,29.901 44.648,44.567c-1.837,2.493 -3.718,4.915 -5.541,7.408c-73.126,99.832 -139.291,205.02 -197.225,314.767c-57.929,109.751 -108.666,223.975 -149.012,341.688c-4.46,12.997 -8.776,26.053 -12.98,39.149c-6.016,18.74 9.362,35.116 23.884,42.655c11.058,5.243 22.601,8.051 34.658,8.424c14.194,2.237 28.447,2.138 42.754,-0.274c30.683,-4.6 62.807,-13.322 88.986,-30.796c19.068,-12.71 37.281,-27.349 44.679,-50.364c21.562,-67.178 46.53,-133.207 74.491,-197.878c6.782,-15.706 13.794,-31.323 20.932,-46.872c38.78,-82.6 82.204,-162.919 129.818,-240.56c13.353,-21.777 27.047,-43.325 41.043,-64.688c22.759,18.825 45.846,37.223 69.316,55.111c90.098,68.717 184.741,131.579 283.745,186.092c89.239,49.139 182.045,91.691 277.769,125.908c11.13,3.978 22.318,7.839 33.533,11.602c11.044,5.243 22.605,8.051 34.644,8.424c14.212,2.237 28.461,2.138 42.771,-0.274c16.274,-1.795 31.98,-5.712 47.142,-11.769c14.779,-4.32 28.717,-10.661 41.841,-19.027c7.11,-5.271 14.225,-10.545 21.349,-15.819c11.157,-9.204 18.925,-20.72 23.316,-34.559c0.014,-5.657 0.041,-11.314 0.055,-16.971c-4.176,-12.16 -12.156,-20.71 -23.942,-25.683c-68.946,-23.087 -136.456,-50.535 -202.28,-81.701c-68.707,-32.551 -135.574,-69.121 -200.361,-109.152c-34.173,-21.134 -67.736,-43.294 -100.728,-66.296c-77.911,-55.409 -152.33,-115.89 -222.761,-180.934c0.031,-0.027 0.044,-0.058 0.058,-0.085c31.881,-40.801 65.013,-80.562 99.203,-119.355c87.689,-97.605 182.459,-188.544 283.772,-271.271c25.823,-21.093 52.087,-41.615 78.721,-61.624c75.107,-55.053 153.23,-105.8 234.151,-151.461c20.563,-11.615 41.341,-22.817 62.236,-33.762c3.591,-1.826 7.165,-3.676 10.773,-5.472c22.232,-11.147 48.853,-24.356 63.047,-46.588c9.221,-14.464 13.825,-35.458 -0.198,-49.139l0.013,0.013Z" style="fill:#fff;fill-rule:nonzero;"/></g></g></svg>