<?xml version="1.0" encoding="UTF-8" standalone="no"?><!DOCTYPE svg PUBLIC "-//W3C//DTD SVG 1.1//EN" "http://www.w3.org/Graphics/SVG/1.1/DTD/svg11.dtd"><svg width="100%" height="100%" viewBox="0 0 3109 1771" version="1.1" xmlns="http://www.w3.org/2000/svg" xmlns:xlink="http://www.w3.org/1999/xlink" xml:space="preserve" xmlns:serif="http://www.serif.com/" style="fill-rule:evenodd;clip-rule:evenodd;stroke-linejoin:round;stroke-miterlimit:2;"><g><path d="M167.292,525l-0,-437.5l66.875,0l-0,437.5l-66.875,0Zm-150.625,-375l-0,-62.5l368.75,0l-0,62.5l-368.75,0Zm738.55,375l-0,-437.5l66.875,0l-0,437.5l-66.875,0Zm-319.375,0l-0,-437.5l66.875,0l-0,437.5l-66.875,0Zm34.375,-196.25l-0,-61.25l323.75,0l-0,61.25l-323.75,0Zm449.633,196.25l0,-437.5l66.875,0l-0,437.5l-66.875,0Zm41.875,0l-0,-63.75l261.875,0l0,63.75l-261.875,0Zm-0,-195l-0,-61.25l249.375,0l0,61.25l-249.375,0Zm-0.625,-181.25l-0,-61.25l257.5,0l0,61.25l-257.5,0Z" style="fill:#fff;fill-rule:nonzero;"/><path d="M376.607,608.333l2037.56,0l-87.442,545.834l-2037.56,-0l87.44,-545.834Z" style="fill:#fff;fill-rule:nonzero;"/><g><path d="M438.958,946.25l17.5,-97.5l160.625,0c8.334,0 16.459,-2.083 24.375,-6.25c8.334,-4.583 15.417,-10.417 21.25,-17.5c5.834,-7.5 9.375,-15.417 10.625,-23.75c1.667,-8.333 1.25,-15.625 -1.25,-21.875c-2.083,-6.25 -6.041,-11.042 -11.875,-14.375c-5.416,-3.333 -12.291,-5 -20.625,-5l-167.5,0l16.875,-97.5l160.625,0c26.667,0 49.792,6.667 69.375,20c19.584,12.917 34.167,30.417 43.75,52.5c9.584,21.667 11.875,45.833 6.875,72.5c-4.583,26.25 -14.791,50 -30.625,71.25c-15.416,20.833 -34.583,37.292 -57.5,49.375c-22.916,12.083 -47.708,18.125 -74.375,18.125l-168.125,0Zm-76.875,153.75l76.875,-437.5l102.5,0l-76.875,437.5l-102.5,0Zm259.375,0l-129.375,-198.75l115,0l129.375,198.75l-115,0Zm153.834,0l76.875,-437.5l102.5,0l-76.875,437.5l-102.5,0Zm410.091,10c-32.083,0 -61.25,-6.042 -87.5,-18.125c-25.833,-12.083 -47.708,-28.75 -65.625,-50c-17.5,-21.25 -29.791,-45.833 -36.875,-73.75c-7.083,-28.333 -7.708,-58.542 -1.875,-90.625c5.834,-32.083 16.667,-61.667 32.5,-88.75c16.25,-27.5 36.25,-51.25 60,-71.25c24.167,-20.417 50.834,-36.25 80,-47.5c29.584,-11.667 60.417,-17.5 92.5,-17.5c35,0 66.459,7.5 94.375,22.5c27.917,15 50,34.792 66.25,59.375l-86.25,55.625c-9.166,-13.333 -21.041,-23.333 -35.625,-30c-14.166,-6.667 -30.416,-10 -48.75,-10c-17.5,0 -34.791,3.542 -51.875,10.625c-16.666,7.083 -32.083,16.875 -46.25,29.375c-14.166,12.083 -26.041,26.25 -35.625,42.5c-9.166,15.833 -15.416,32.917 -18.75,51.25c-3.333,18.333 -3.333,35.417 0,51.25c3.334,15.417 9.375,28.958 18.125,40.625c9.167,11.667 20.625,20.833 34.375,27.5c13.75,6.25 29.375,9.375 46.875,9.375c17.084,0 33.75,-3.333 50,-10c16.25,-7.083 31.25,-16.458 45,-28.125c13.75,-12.083 25.417,-25.833 35,-41.25c10,-15.833 16.875,-32.5 20.625,-50l96.25,6.25c-6.25,31.25 -17.291,60.417 -33.125,87.5c-15.416,26.667 -34.583,50 -57.5,70c-22.916,20 -48.541,35.625 -76.875,46.875c-28.333,10.833 -58.125,16.25 -89.375,16.25Zm26.25,-188.75l13.125,-72.5l225,0l-7.5,41.875l-41.875,30.625l-188.75,0Zm554.546,178.75l76.875,-437.5l102.5,0l-76.875,437.5l-102.5,0Zm-298.75,0l76.875,-437.5l102.5,0l-76.875,437.5l-102.5,0Zm68.125,-178.125l16.875,-97.5l333.125,0l-16.875,97.5l-333.125,0Zm505.083,178.125l76.875,-437.5l102.5,0l-76.875,437.5l-102.5,0Zm-73.125,-340l16.875,-97.5l368.75,0l-16.875,97.5l-368.75,0Z" style="fill:#141417;fill-rule:nonzero;"/></g><g><g><path d="M1610.42,1685l-168.75,-437.5l72.5,0l141.875,396.25l-22.5,0l142.5,-396.25l72.5,0l-169.375,437.5l-68.75,0Zm492.625,10c-32.5,0 -62.709,-5.833 -90.625,-17.5c-27.917,-11.667 -52.5,-27.917 -73.75,-48.75c-20.834,-20.833 -37.084,-45 -48.75,-72.5c-11.667,-27.917 -17.5,-57.917 -17.5,-90c-0,-32.083 5.833,-61.875 17.5,-89.375c11.666,-27.917 27.916,-52.292 48.75,-73.125c21.25,-20.833 45.833,-37.083 73.75,-48.75c27.916,-11.667 57.916,-17.5 90,-17.5c32.5,0 62.708,5.833 90.625,17.5c27.916,11.667 52.291,27.917 73.125,48.75c21.25,20.833 37.708,45.208 49.375,73.125c11.666,27.5 17.5,57.292 17.5,89.375c-0,32.083 -5.834,62.083 -17.5,90c-11.667,27.5 -28.125,51.667 -49.375,72.5c-20.834,20.833 -45.209,37.083 -73.125,48.75c-27.917,11.667 -57.917,17.5 -90,17.5Zm-0.625,-63.125c24.166,0 46.041,-3.958 65.625,-11.875c20,-7.917 37.083,-19.167 51.25,-33.75c14.583,-14.583 25.833,-31.875 33.75,-51.875c7.916,-20.417 11.875,-43.125 11.875,-68.125c-0,-25 -3.959,-47.5 -11.875,-67.5c-7.917,-20.417 -19.167,-37.917 -33.75,-52.5c-14.167,-14.583 -31.25,-25.833 -51.25,-33.75c-19.584,-7.917 -41.459,-11.875 -65.625,-11.875c-23.75,0 -45.625,3.958 -65.625,11.875c-19.584,7.917 -36.667,19.167 -51.25,33.75c-14.167,14.583 -25.209,32.083 -33.125,52.5c-7.917,20 -11.875,42.5 -11.875,67.5c-0,24.583 3.958,47.083 11.875,67.5c7.916,20.417 18.958,37.917 33.125,52.5c14.583,14.583 31.666,25.833 51.25,33.75c20,7.917 41.875,11.875 65.625,11.875Zm405.404,53.125l-0,-437.5l66.875,0l-0,437.5l-66.875,0Zm-150.625,-375l-0,-62.5l368.75,0l-0,62.5l-368.75,0Zm419.175,375l-0,-437.5l66.875,0l-0,437.5l-66.875,0Zm41.875,0l-0,-63.75l261.875,0l-0,63.75l-261.875,0Zm-0,-195l-0,-61.25l249.375,0l-0,61.25l-249.375,0Zm-0.625,-181.25l-0,-61.25l257.5,0l-0,61.25l-257.5,0Z" style="fill:#fff;fill-rule:nonzero;"/></g><path d="M2336.57,1253.58c-1.517,-1.071 -3.038,-2.141 -4.554,-3.208c-4.454,-1.937 -9.109,-2.892 -13.967,-2.875c-2.887,0.167 -5.779,0.329 -8.671,0.492c-6.308,0.837 -12.396,2.504 -18.267,5c-37.308,18.675 -73.12,39.991 -106.812,64.854c-32.679,24.108 -63.658,50.267 -92.296,79.266c-11.792,11.942 -23.221,24.275 -34.292,36.946c-18.77,-20.2 -36.295,-41.608 -52.366,-64.108c-11.784,-16.496 -22.763,-33.583 -32.896,-51.188c-6.542,-11.604 -12.721,-23.412 -18.492,-35.433c-0.758,-2.737 -2.329,-4.704 -4.716,-5.9c-2.455,-2.062 -5.313,-3.283 -8.575,-3.662c-3.988,-0.846 -7.988,-1.038 -12.005,-0.575c-4.625,0.058 -9.17,0.766 -13.633,2.125c-8.042,2.396 -16.846,5.679 -22.958,11.75c-1.484,1.662 -2.967,3.329 -4.45,4.991c-2.271,3.017 -3.067,6.375 -2.388,10.071c15.475,32.246 33.679,63.221 54.242,92.346c19.387,27.471 40.942,53.338 64.283,77.383c4.284,4.413 8.65,8.742 13.054,13.03c-0.537,0.729 -1.087,1.437 -1.62,2.166c-21.38,29.188 -40.725,59.942 -57.663,92.029c-16.937,32.088 -31.771,65.484 -43.567,99.9c-1.304,3.8 -2.566,7.617 -3.795,11.446c-1.759,5.479 2.737,10.267 6.983,12.471c3.233,1.533 6.608,2.354 10.133,2.463c4.15,0.654 8.317,0.625 12.5,-0.08c8.971,-1.345 18.363,-3.895 26.017,-9.004c5.575,-3.716 10.9,-7.996 13.063,-14.725c6.304,-19.641 13.604,-38.946 21.779,-57.854c1.983,-4.592 4.033,-9.158 6.12,-13.704c11.338,-24.15 24.034,-47.633 37.955,-70.333c3.904,-6.367 7.908,-12.667 12,-18.913c6.654,5.504 13.404,10.883 20.266,16.113c26.342,20.091 54.013,38.47 82.959,54.408c26.091,14.367 53.225,26.808 81.212,36.812c3.254,1.163 6.525,2.292 9.804,3.392c3.229,1.533 6.609,2.354 10.129,2.463c4.155,0.654 8.321,0.625 12.505,-0.08c4.758,-0.525 9.35,-1.67 13.783,-3.441c4.321,-1.263 8.396,-3.117 12.233,-5.563c2.079,-1.541 4.159,-3.083 6.242,-4.625c3.262,-2.691 5.533,-6.058 6.817,-10.104c0.004,-1.654 0.012,-3.308 0.016,-4.962c-1.221,-3.555 -3.554,-6.055 -7,-7.509c-20.158,-6.75 -39.896,-14.775 -59.141,-23.887c-20.088,-9.517 -39.638,-20.209 -58.58,-31.913c-9.991,-6.179 -19.804,-12.658 -29.45,-19.383c-22.779,-16.2 -44.537,-33.883 -65.129,-52.9c0.009,-0.008 0.013,-0.017 0.017,-0.025c9.321,-11.929 19.008,-23.554 29.004,-34.896c25.638,-28.537 53.346,-55.125 82.967,-79.312c7.55,-6.167 15.229,-12.167 23.016,-18.017c21.959,-16.096 44.8,-30.933 68.459,-44.283c6.012,-3.396 12.087,-6.671 18.196,-9.871c1.05,-0.534 2.095,-1.075 3.15,-1.6c6.5,-3.259 14.283,-7.121 18.433,-13.621c2.696,-4.229 4.042,-10.367 -0.058,-14.367l0.004,0.004Z" style="fill:#fff;fill-rule:nonzero;"/></g></g></svg>