<svg width="874" height="395" viewBox="0 0 874 395" fill="none" xmlns="http://www.w3.org/2000/svg">
<g filter="url(#filter0_d_54_30)">
<path d="M40.15 118V13H56.2V118H40.15ZM4 28V13H92.5V28H4ZM181.252 118V13H197.302V118H181.252ZM104.602 118V13H120.652V118H104.602ZM112.852 70.9V56.2H190.552V70.9H112.852ZM220.764 118V13H236.814V118H220.764ZM230.814 118V102.7H293.664V118H230.814ZM230.814 71.2V56.5H290.664V71.2H230.814ZM230.664 27.7V13H292.464V27.7H230.664Z" fill="white"/>
<path d="M175.35 212.1L179.55 188.7H218.1C220.1 188.7 222.05 188.2 223.95 187.2C225.95 186.1 227.65 184.7 229.05 183C230.45 181.2 231.3 179.3 231.6 177.3C232 175.3 231.9 173.55 231.3 172.05C230.8 170.55 229.85 169.4 228.45 168.6C227.15 167.8 225.5 167.4 223.5 167.4H183.3L187.35 144H225.9C232.3 144 237.85 145.6 242.55 148.8C247.25 151.9 250.75 156.1 253.05 161.4C255.35 166.6 255.9 172.4 254.7 178.8C253.6 185.1 251.15 190.8 247.35 195.9C243.65 200.9 239.05 204.85 233.55 207.75C228.05 210.65 222.1 212.1 215.7 212.1H175.35ZM156.9 249L175.35 144H199.95L181.5 249H156.9ZM219.15 249L188.1 201.3H215.7L246.75 249H219.15ZM256.07 249L274.52 144H299.12L280.67 249H256.07ZM354.492 251.4C346.792 251.4 339.792 249.95 333.492 247.05C327.292 244.15 322.042 240.15 317.742 235.05C313.542 229.95 310.592 224.05 308.892 217.35C307.192 210.55 307.042 203.3 308.442 195.6C309.842 187.9 312.442 180.8 316.242 174.3C320.142 167.7 324.942 162 330.642 157.2C336.442 152.3 342.842 148.5 349.842 145.8C356.942 143 364.342 141.6 372.042 141.6C380.442 141.6 387.992 143.4 394.692 147C401.392 150.6 406.692 155.35 410.592 161.25L389.892 174.6C387.692 171.4 384.842 169 381.342 167.4C377.942 165.8 374.042 165 369.642 165C365.442 165 361.292 165.85 357.192 167.55C353.192 169.25 349.492 171.6 346.092 174.6C342.692 177.5 339.842 180.9 337.542 184.8C335.342 188.6 333.842 192.7 333.042 197.1C332.242 201.5 332.242 205.6 333.042 209.4C333.842 213.1 335.292 216.35 337.392 219.15C339.592 221.95 342.342 224.15 345.642 225.75C348.942 227.25 352.692 228 356.892 228C360.992 228 364.992 227.2 368.892 225.6C372.792 223.9 376.392 221.65 379.692 218.85C382.992 215.95 385.792 212.65 388.092 208.95C390.492 205.15 392.142 201.15 393.042 196.95L416.142 198.45C414.642 205.95 411.992 212.95 408.192 219.45C404.492 225.85 399.892 231.45 394.392 236.25C388.892 241.05 382.742 244.8 375.942 247.5C369.142 250.1 361.992 251.4 354.492 251.4ZM360.792 206.1L363.942 188.7H417.942L416.142 198.75L406.092 206.1H360.792ZM493.883 249L512.333 144H536.933L518.483 249H493.883ZM422.183 249L440.633 144H465.233L446.783 249H422.183ZM438.533 206.25L442.583 182.85H522.533L518.483 206.25H438.533ZM559.753 249L578.203 144H602.803L584.353 249H559.753ZM542.203 167.4L546.253 144H634.753L630.703 167.4H542.203Z" fill="white"/>
<g filter="url(#filter1_nn_54_30)">
<path d="M514.5 380L474 275H491.4L525.45 370.1H520.05L554.25 275H571.65L531 380H514.5ZM632.73 382.4C624.93 382.4 617.68 381 610.98 378.2C604.28 375.4 598.38 371.5 593.28 366.5C588.28 361.5 584.38 355.7 581.58 349.1C578.78 342.4 577.38 335.2 577.38 327.5C577.38 319.8 578.78 312.65 581.58 306.05C584.38 299.35 588.28 293.5 593.28 288.5C598.38 283.5 604.28 279.6 610.98 276.8C617.68 274 624.88 272.6 632.58 272.6C640.38 272.6 647.63 274 654.33 276.8C661.03 279.6 666.88 283.5 671.88 288.5C676.98 293.5 680.93 299.35 683.73 306.05C686.53 312.65 687.93 319.8 687.93 327.5C687.93 335.2 686.53 342.4 683.73 349.1C680.93 355.7 676.98 361.5 671.88 366.5C666.88 371.5 661.03 375.4 654.33 378.2C647.63 381 640.43 382.4 632.73 382.4ZM632.58 367.25C638.38 367.25 643.63 366.3 648.33 364.4C653.13 362.5 657.23 359.8 660.63 356.3C664.13 352.8 666.83 348.65 668.73 343.85C670.63 338.95 671.58 333.5 671.58 327.5C671.58 321.5 670.63 316.1 668.73 311.3C666.83 306.4 664.13 302.2 660.63 298.7C657.23 295.2 653.13 292.5 648.33 290.6C643.63 288.7 638.38 287.75 632.58 287.75C626.88 287.75 621.63 288.7 616.83 290.6C612.13 292.5 608.03 295.2 604.53 298.7C601.13 302.2 598.48 306.4 596.58 311.3C594.68 316.1 593.73 321.5 593.73 327.5C593.73 333.4 594.68 338.8 596.58 343.7C598.48 348.6 601.13 352.8 604.53 356.3C608.03 359.8 612.13 362.5 616.83 364.4C621.63 366.3 626.88 367.25 632.58 367.25ZM729.877 380V275H745.927V380H729.877ZM693.727 290V275H782.227V290H693.727ZM794.329 380V275H810.379V380H794.329ZM804.379 380V364.7H867.229V380H804.379ZM804.379 333.2V318.5H864.229V333.2H804.379ZM804.229 289.7V275H866.029V289.7H804.229Z" fill="white"/>
</g>
<path d="M687.777 278.46C687.413 278.203 687.048 277.946 686.684 277.69C685.615 277.225 684.498 276.996 683.332 277C682.639 277.04 681.945 277.079 681.251 277.118C679.738 277.319 678.276 277.719 676.867 278.318C667.913 282.8 659.318 287.916 651.232 293.883C643.389 299.669 635.954 305.947 629.081 312.907C626.251 315.773 623.508 318.733 620.851 321.774C616.346 316.926 612.14 311.788 608.283 306.388C605.455 302.429 602.82 298.328 600.388 294.103C598.818 291.318 597.335 288.484 595.95 285.599C595.768 284.942 595.391 284.47 594.818 284.183C594.229 283.688 593.543 283.395 592.76 283.304C591.803 283.101 590.843 283.055 589.879 283.166C588.769 283.18 587.678 283.35 586.607 283.676C584.677 284.251 582.564 285.039 581.097 286.496C580.741 286.895 580.385 287.295 580.029 287.694C579.484 288.418 579.293 289.224 579.456 290.111C583.17 297.85 587.539 305.284 592.474 312.274C597.127 318.867 602.3 325.075 607.902 330.846C608.93 331.905 609.978 332.944 611.035 333.973C610.906 334.148 610.774 334.318 610.646 334.493C605.515 341.498 600.872 348.879 596.807 356.58C592.742 364.281 589.182 372.296 586.351 380.556C586.038 381.468 585.735 382.384 585.44 383.303C585.018 384.618 586.097 385.767 587.116 386.296C587.892 386.664 588.702 386.861 589.548 386.887C590.544 387.044 591.544 387.037 592.548 386.868C594.701 386.545 596.955 385.933 598.792 384.707C600.13 383.815 601.408 382.788 601.927 381.173C603.44 376.459 605.192 371.826 607.154 367.288C607.63 366.186 608.122 365.09 608.623 363.999C611.344 358.203 614.391 352.567 617.732 347.119C618.669 345.591 619.63 344.079 620.612 342.58C622.209 343.901 623.829 345.192 625.476 346.447C631.798 351.269 638.439 355.68 645.386 359.505C651.648 362.953 658.16 365.939 664.877 368.34C665.658 368.619 666.443 368.89 667.23 369.154C668.005 369.522 668.816 369.719 669.661 369.745C670.658 369.902 671.658 369.895 672.662 369.726C673.804 369.6 674.906 369.325 675.97 368.9C677.007 368.597 677.985 368.152 678.906 367.565C679.405 367.195 679.904 366.825 680.404 366.455C681.187 365.809 681.732 365.001 682.04 364.03C682.041 363.633 682.043 363.236 682.044 362.839C681.751 361.986 681.191 361.386 680.364 361.037C675.526 359.417 670.789 357.491 666.17 355.304C661.349 353.02 656.657 350.454 652.111 347.645C649.713 346.162 647.358 344.607 645.043 342.993C639.576 339.105 634.354 334.861 629.412 330.297C629.414 330.295 629.415 330.293 629.416 330.291C631.653 327.428 633.978 324.638 636.377 321.916C642.53 315.067 649.18 308.686 656.289 302.881C658.101 301.401 659.944 299.961 661.813 298.557C667.083 294.694 672.565 291.133 678.243 287.929C679.686 287.114 681.144 286.328 682.61 285.56C682.862 285.432 683.113 285.302 683.366 285.176C684.926 284.394 686.794 283.467 687.79 281.907C688.437 280.892 688.76 279.419 687.776 278.459L687.777 278.46Z" fill="white"/>
</g>
<defs>
<filter id="filter0_d_54_30" x="0" y="13" width="871.229" height="382" filterUnits="userSpaceOnUse" color-interpolation-filters="sRGB">
<feFlood flood-opacity="0" result="BackgroundImageFix"/>
<feColorMatrix in="SourceAlpha" type="matrix" values="0 0 0 0 0 0 0 0 0 0 0 0 0 0 0 0 0 0 127 0" result="hardAlpha"/>
<feOffset dy="4"/>
<feGaussianBlur stdDeviation="2"/>
<feComposite in2="hardAlpha" operator="out"/>
<feColorMatrix type="matrix" values="0 0 0 0 0 0 0 0 0 0 0 0 0 0 0 0 0 0 0.25 0"/>
<feBlend mode="normal" in2="BackgroundImageFix" result="effect1_dropShadow_54_30"/>
<feBlend mode="normal" in="SourceGraphic" in2="effect1_dropShadow_54_30" result="shape"/>
</filter>
<filter id="filter1_nn_54_30" x="474" y="272.6" width="393.229" height="109.8" filterUnits="userSpaceOnUse" color-interpolation-filters="sRGB">
<feFlood flood-opacity="0" result="BackgroundImageFix"/>
<feBlend mode="normal" in="SourceGraphic" in2="BackgroundImageFix" result="shape"/>
<feTurbulence type="fractalNoise" baseFrequency="0.1666666716337204 0.1666666716337204" stitchTiles="stitch" numOctaves="3" result="noise" seed="5879" />
<feColorMatrix in="noise" type="luminanceToAlpha" result="alphaNoise" />
<feComponentTransfer in="alphaNoise" result="coloredNoise1">
<feFuncA type="discrete" tableValues="0 0 0 0 0 0 0 0 0 0 0 0 0 0 0 0 0 0 0 0 0 0 0 1 1 1 0 0 0 0 0 0 0 0 0 0 0 0 0 0 0 0 0 0 0 0 0 0 0 0 0 0 0 0 0 0 0 0 0 0 0 0 0 0 0 0 0 0 0 0 0 0 0 0 0 0 0 0 0 0 0 0 0 0 0 0 0 0 0 0 0 0 0 0 0 0 0 0 0 0 "/>
</feComponentTransfer>
<feComposite operator="in" in2="shape" in="coloredNoise1" result="noise1Clipped" />
<feFlood flood-color="rgba(231, 231, 231, 0.25)" result="color1Flood" />
<feComposite operator="in" in2="noise1Clipped" in="color1Flood" result="color1" />
<feMerge result="effect1_noise_54_30">
<feMergeNode in="shape" />
<feMergeNode in="color1" />
</feMerge>
<feTurbulence type="fractalNoise" baseFrequency="1 1" stitchTiles="stitch" numOctaves="3" result="noise" seed="9937" />
<feColorMatrix in="noise" type="luminanceToAlpha" result="alphaNoise" />
<feComponentTransfer in="alphaNoise" result="coloredNoise1">
<feFuncA type="discrete" tableValues="0 0 0 0 0 0 0 0 0 0 0 0 0 0 0 0 0 0 1 1 1 1 1 1 1 1 1 1 1 1 1 0 0 0 0 0 0 0 0 0 0 0 0 0 0 0 0 0 0 0 0 0 0 0 0 0 0 0 0 0 0 0 0 0 0 0 0 0 0 0 0 0 0 0 0 0 0 0 0 0 0 0 0 0 0 0 0 0 0 0 0 0 0 0 0 0 0 0 0 0 "/>
</feComponentTransfer>
<feComposite operator="in" in2="effect1_noise_54_30" in="coloredNoise1" result="noise1Clipped" />
<feComponentTransfer in="alphaNoise" result="coloredNoise2">
<feFuncA type="discrete" tableValues="0 0 0 0 0 0 0 0 0 0 0 0 0 0 0 0 0 0 0 0 0 0 0 0 0 0 0 0 0 0 0 0 0 0 0 0 0 0 0 0 0 0 0 0 0 0 0 0 0 0 0 0 0 0 0 0 0 0 0 0 0 0 0 0 0 0 0 0 0 1 1 1 1 1 1 1 1 1 1 1 1 1 0 0 0 0 0 0 0 0 0 0 0 0 0 0 0 0 0 0 "/>
</feComponentTransfer>
<feComposite operator="in" in2="effect1_noise_54_30" in="coloredNoise2" result="noise2Clipped" />
<feFlood flood-color="rgba(87, 87, 87, 0.15)" result="color1Flood" />
<feComposite operator="in" in2="noise1Clipped" in="color1Flood" result="color1" />
<feFlood flood-color="rgba(255, 255, 255, 0.15)" result="color2Flood" />
<feComposite operator="in" in2="noise2Clipped" in="color2Flood" result="color2" />
<feMerge result="effect2_noise_54_30">
<feMergeNode in="effect1_noise_54_30" />
<feMergeNode in="color1" />
<feMergeNode in="color2" />
</feMerge>
</filter>
</defs>
</svg>
