<?xml version="1.0" encoding="UTF-8"?>
<svg id="Ebene_1" data-name="Ebene 1" xmlns="http://www.w3.org/2000/svg" viewBox="0 0 3840 2160">
  <defs>
    <style>
      .cls-1 {
        fill: #fff;
      }
    </style>
  </defs>
  <path class="cls-1" d="M228.09,640.32V106.72h81.56v533.6h-81.56ZM44.38,182.95v-76.23h449.75v76.23H44.38h0ZM945.15,640.32V106.72h81.56v533.6h-81.56ZM555.63,640.32V106.72h81.56v533.6h-81.56ZM597.55,400.96v-74.7h394.86v74.7h-394.86ZM1145.95,640.32V106.72h81.56v533.6h-81.56ZM1197.02,640.32v-77.75h319.4v77.75h-319.4ZM1197.02,402.48v-74.7h304.15v74.7h-304.15ZM1196.26,181.42v-74.7h314.06v74.7h-314.06Z"/>
  <g>
    <path class="cls-1" d="M829.28,933.03c-6.61-4.07-14.99-6.1-25.16-6.1h-140.57l-19.02,108.24h132.15c10.16,0,20.07-2.54,29.73-7.62,10.16-5.59,18.8-12.71,25.92-21.34,7.12-9.15,11.43-18.8,12.96-28.97,2.03-10.16,1.52-19.06-1.52-26.68-2.54-7.62-7.37-13.47-14.48-17.53Z"/>
    <path class="cls-1" d="M483.38,741.95h0l-106.65,665.73h2485.11l106.65-665.73H483.38ZM962.68,984.87c-5.59,32.02-18.04,60.98-37.35,86.9-18.8,25.41-42.18,45.48-70.13,60.22-17.99,9.49-36.94,15.9-56.82,19.28l123.9,190.35h-140.26l-122.07-187.52h-36.32l-32.95,187.52h-125.01l93.76-533.6h256.89c32.52,0,60.73,8.13,84.61,24.39,23.89,15.75,41.67,37.1,53.36,64.03,11.69,26.43,14.48,55.9,8.39,88.42ZM1094.65,1341.61h-125.01l93.76-533.6h125.01l-93.76,533.6ZM1783.1,1086.25l-.38.28c-7.68,37.43-21.02,72.41-40.02,104.92-18.8,32.52-42.18,60.98-70.13,85.38-27.95,24.39-59.2,43.45-93.76,57.17-34.56,13.21-70.89,19.82-109.01,19.82s-74.7-7.37-106.72-22.11c-31.51-14.74-58.19-35.06-80.04-60.98-21.34-25.92-36.33-55.9-44.97-89.95-8.64-34.56-9.4-71.4-2.29-110.53,7.12-39.13,20.33-75.21,39.64-108.24,19.82-33.54,44.21-62.51,73.18-86.9,29.48-24.9,62-44.21,97.57-57.93,36.08-14.23,73.69-21.34,112.82-21.34,42.69,0,81.06,9.15,115.1,27.44,34.05,18.29,60.98,42.43,80.8,72.42l-105.19,67.84c-11.18-16.26-25.66-28.46-43.45-36.59-17.28-8.13-37.1-12.2-59.46-12.2s-42.43,4.32-63.27,12.96c-20.33,8.64-39.13,20.58-56.41,35.83-17.28,14.74-31.76,32.02-43.45,51.84-11.18,19.31-18.8,40.15-22.87,62.51-4.07,22.36-4.07,43.2,0,62.51,4.07,18.8,11.43,35.32,22.11,49.55,11.18,14.23,25.16,25.41,41.93,33.54,16.77,7.62,35.83,11.43,57.17,11.43s41.16-4.07,60.98-12.2c19.82-8.64,38.11-20.07,54.88-34.3,16.77-14.74,31-31.51,42.69-50.31,3.01-4.77,5.79-9.59,8.33-14.48h-147.07l16.01-88.42h274.42l-9.15,51.07ZM2303.19,1341.61h-125.01l38.17-217.25h-239.36l-38.17,217.25h-125.01l93.76-533.6h125.01l-34.69,197.43h239.36l34.69-197.43h125.01l-93.76,533.6ZM2710.8,926.93l-72.87,414.68h-125.01l72.87-414.68h-162.05l20.58-118.92h449.75l-20.58,118.92h-162.68Z"/>
  </g>
  <g>
    <path class="cls-1" d="M1988.2,2055.11l-205.82-533.6h88.42l173.04,483.29h-27.44l173.8-483.29h88.42l-206.58,533.6h-83.85ZM2589.03,2067.31c-39.64,0-76.48-7.11-110.53-21.34-34.05-14.23-64.03-34.05-89.95-59.46-25.41-25.41-45.23-54.88-59.46-88.42-14.23-34.05-21.34-70.64-21.34-109.77s7.11-75.47,21.34-109.01c14.23-34.05,34.05-63.78,59.46-89.19,25.92-25.41,55.9-45.23,89.95-59.46,34.05-14.23,70.64-21.34,109.77-21.34s76.48,7.11,110.53,21.34c34.05,14.23,63.78,34.05,89.19,59.46,25.92,25.41,45.99,55.14,60.22,89.19,14.23,33.54,21.34,69.88,21.34,109.01s-7.12,75.72-21.34,109.77c-14.23,33.54-34.3,63.02-60.22,88.42-25.41,25.41-55.14,45.23-89.19,59.46-34.05,14.23-70.64,21.34-109.77,21.34ZM2588.27,1990.32c29.47,0,56.15-4.83,80.04-14.48,24.39-9.66,45.23-23.38,62.51-41.16,17.79-17.79,31.51-38.88,41.16-63.27,9.65-24.9,14.48-52.6,14.48-83.09s-4.83-57.93-14.48-82.33c-9.66-24.9-23.38-46.25-41.16-64.03-17.28-17.79-38.11-31.51-62.51-41.16-23.89-9.66-50.57-14.48-80.04-14.48s-55.65,4.83-80.04,14.48c-23.89,9.66-44.72,23.38-62.51,41.16-17.28,17.79-30.75,39.13-40.4,64.03-9.66,24.39-14.48,51.84-14.48,82.33s4.83,57.42,14.48,82.33c9.65,24.9,23.12,46.25,40.4,64.03,17.79,17.79,38.62,31.51,62.51,41.16,24.39,9.66,51.07,14.48,80.04,14.48ZM3082.72,2055.11v-533.6h81.56v533.6h-81.56ZM2899.01,1597.74v-76.23h449.75v76.23h-449.75ZM3410.26,2055.11v-533.6h81.56v533.6h-81.56ZM3461.33,2055.11v-77.75h319.4v77.75h-319.4ZM3461.33,1817.28v-74.7h304.15v74.7h-304.15ZM3460.57,1596.22v-74.7h314.06v74.7h-314.06Z"/>
    <path class="cls-1" d="M2873.85,1528.93c-1.85-1.31-3.71-2.61-5.55-3.91-5.43-2.36-11.11-3.53-17.03-3.51-3.52.2-7.05.4-10.58.6-7.69,1.02-15.12,3.05-22.28,6.1-45.5,22.78-89.18,48.77-130.27,79.1-39.86,29.4-77.64,61.31-112.57,96.68-14.38,14.57-28.32,29.61-41.82,45.06-22.89-24.64-44.27-50.75-63.87-78.19-14.37-20.12-27.76-40.96-40.12-62.43-7.98-14.15-15.52-28.55-22.55-43.22-.92-3.34-2.84-5.74-5.75-7.2-2.99-2.51-6.48-4-10.46-4.47-4.86-1.03-9.74-1.27-14.64-.7-5.64.07-11.18.93-16.63,2.59-9.81,2.92-20.55,6.93-28,14.33-1.81,2.03-3.62,4.06-5.43,6.09-2.77,3.68-3.74,7.78-2.91,12.28,18.87,39.33,41.08,77.11,66.16,112.63,23.65,33.5,49.93,65.05,78.4,94.38,5.23,5.38,10.55,10.66,15.92,15.89-.65.89-1.33,1.75-1.98,2.64-26.08,35.6-49.67,73.11-70.33,112.24-20.66,39.14-38.75,79.87-53.14,121.84-1.59,4.63-3.13,9.29-4.63,13.96-2.15,6.68,3.34,12.52,8.52,15.21,3.94,1.87,8.06,2.87,12.36,3,5.06.8,10.14.76,15.25-.1,10.94-1.64,22.4-4.75,31.73-10.98,6.8-4.53,13.29-9.75,15.93-17.96,7.69-23.96,16.59-47.5,26.56-70.56,2.42-5.6,4.92-11.17,7.46-16.71,13.83-29.45,29.31-58.1,46.29-85.78,4.76-7.77,9.64-15.45,14.64-23.07,8.12,6.71,16.35,13.27,24.72,19.65,32.13,24.5,65.88,46.92,101.18,66.36,31.82,17.52,64.92,32.7,99.05,44.9,3.97,1.42,7.96,2.8,11.96,4.14,3.94,1.87,8.06,2.87,12.35,3,5.07.8,10.15.76,15.25-.1,5.8-.64,11.4-2.04,16.81-4.2,5.27-1.54,10.24-3.8,14.92-6.78,2.54-1.88,5.07-3.76,7.61-5.64,3.98-3.28,6.75-7.39,8.31-12.32,0-2.02.01-4.03.02-6.05-1.49-4.34-4.33-7.39-8.54-9.16-24.59-8.23-48.66-18.02-72.13-29.13-24.5-11.61-48.34-24.65-71.45-38.92-12.19-7.54-24.15-15.44-35.92-23.64-27.78-19.76-54.32-41.33-79.43-64.52.01,0,.02-.02.02-.03,11.37-14.55,23.18-28.73,35.37-42.56,31.27-34.81,65.06-67.23,101.19-96.73,9.21-7.52,18.57-14.84,28.07-21.97,26.78-19.63,54.64-37.73,83.5-54.01,7.33-4.14,14.74-8.14,22.19-12.04,1.28-.65,2.56-1.31,3.84-1.95,7.93-3.97,17.42-8.69,22.48-16.61,3.29-5.16,4.93-12.64-.07-17.52h0s0,0,0,0Z"/>
  </g>
</svg>